# Blender v2.79 (sub 0) OBJ File: ''
# www.blender.org
mtllib Box_03.mtl
o Box009_Untitled
v -0.427710 0.242356 0.091419
v -0.427710 -0.242356 0.091419
v -0.412187 -0.242356 -0.106943
v 0.412187 0.242356 0.106943
v 0.412187 0.257879 -0.091419
v 0.412187 -0.257879 0.091419
v 0.412187 -0.242356 -0.106943
v -0.412187 0.242356 0.106943
v -0.412187 0.257879 0.091419
v -0.412187 0.242356 -0.106943
v -0.412187 -0.257879 0.091419
v -0.412187 -0.242356 0.106943
v -0.412187 -0.257879 -0.091419
v -0.427710 -0.242356 -0.091419
v 0.427710 0.242356 0.091419
v 0.412187 0.257879 0.091419
v 0.427710 0.242356 -0.091419
v 0.412187 0.242356 -0.106943
v 0.427710 -0.242356 0.091419
v 0.412187 -0.242356 0.106943
v -0.427710 0.000000 0.091419
v -0.427710 0.058165 -0.091419
v -0.427710 -0.058165 -0.091419
v 0.427710 -0.058165 -0.091419
v 0.427710 0.058165 -0.091419
v 0.427710 -0.000000 0.091419
v -0.412187 0.000000 0.106943
v -0.412187 0.058165 -0.106943
v -0.412187 -0.058165 -0.106943
v 0.412187 -0.058165 -0.106943
v 0.412187 0.058165 -0.106943
v 0.412187 -0.000000 0.106943
v -0.427710 0.242356 -0.091419
v 0.427710 -0.242356 -0.091419
v -0.412187 0.257879 -0.091419
v 0.412187 -0.257879 -0.091419
v -0.427710 0.058165 0.032911
v -0.427710 -0.058165 0.032911
v 0.427710 -0.058165 -0.036314
v 0.427710 0.058165 -0.036314
vt 0.379721 0.411551
vt 0.394955 0.421916
vt 0.367504 0.425163
vt 0.074338 0.411682
vt 0.087468 0.440490
vt 0.061203 0.440496
vt 0.573929 0.939246
vt 0.948550 0.939246
vt 0.948550 0.994838
vt 0.573929 0.994838
vt 0.320534 0.453207
vt 0.133773 0.453199
vt 0.133751 0.411325
vt 0.320499 0.411344
vt 0.432543 0.397826
vt 0.432226 0.393092
vt 0.436989 0.396084
vt 0.447698 0.436828
vt 0.444918 0.441768
vt 0.442984 0.437440
vt 0.325182 0.411680
vt 0.324231 0.406961
vt 0.324532 0.457540
vt 0.325272 0.452805
vt 0.018956 0.406992
vt 0.019629 0.411718
vt 0.014913 0.411138
vt 0.014882 0.453384
vt 0.019556 0.452818
vt 0.018864 0.457533
vt 0.129032 0.411726
vt 0.129763 0.407028
vt 0.129851 0.457485
vt 0.129108 0.452801
vt 0.573929 0.994838
vt 0.573929 0.939246
vt 0.948550 0.939246
vt 0.948550 0.994838
vt 0.699377 0.381996
vt 0.699306 0.377030
vt 0.885720 0.374382
vt 0.885791 0.379348
vt 0.320518 0.291584
vt 0.320517 0.296558
vt 0.133760 0.296538
vt 0.133761 0.291564
vt 0.133775 0.458171
vt 0.320532 0.458179
vt 0.133748 0.406349
vt 0.320505 0.406369
vt 0.366855 0.453001
vt 0.061084 0.452814
vt 0.698715 0.335379
vt 0.885128 0.332731
vt 0.320530 0.499906
vt 0.133773 0.499898
vt 0.133754 0.351443
vt 0.320511 0.351463
vt 0.379101 0.406737
vt 0.366705 0.457764
vt 0.404598 0.453853
vt 0.403072 0.449075
vt 0.060986 0.457703
vt 0.087700 0.457675
vt 0.087595 0.452793
vt 0.074343 0.406822
vt 0.481013 0.994838
vt 0.481013 0.939246
vt 0.982242 0.939246
vt 0.982242 0.994838
vt 0.886378 0.420693
vt 0.699964 0.423342
vn -0.9239 0.0000 0.3827
vn -1.0000 0.0000 0.0000
vn 0.9239 -0.0000 0.3827
vn 1.0000 -0.0000 -0.0000
vn -0.3827 0.0000 -0.9239
vn 0.3827 -0.0000 -0.9239
vn -0.3416 -0.8756 -0.3416
vn 0.3416 -0.8756 -0.3416
vn 0.3416 -0.8756 0.3416
vn -0.3416 -0.8756 0.3416
vn -0.8756 0.3416 0.3416
vn -0.3416 0.3416 0.8756
vn -0.3416 0.8756 0.3416
vn -0.3416 0.8756 -0.3416
vn -0.3416 0.3416 -0.8756
vn -0.8756 0.3416 -0.3416
vn -0.8756 -0.3416 0.3416
vn -0.3416 -0.3416 0.8756
vn -0.3416 -0.3416 -0.8756
vn -0.8756 -0.3416 -0.3416
vn 0.3416 0.3416 0.8756
vn 0.8756 0.3416 0.3416
vn 0.3416 0.8756 0.3416
vn 0.3416 0.8756 -0.3416
vn 0.8756 0.3416 -0.3416
vn 0.3416 0.3416 -0.8756
vn 0.8756 -0.3416 0.3416
vn 0.3416 -0.3416 0.8756
vn 0.3416 -0.3416 -0.8756
vn 0.8756 -0.3416 -0.3416
vn -0.9239 0.0000 -0.3827
vn 0.9239 -0.0000 -0.3827
vn 0.3827 -0.0000 0.9239
vn -0.3827 0.0000 0.9239
usemtl None
s 1
f 21/1/1 37/2/2 38/3/2
f 26/4/3 39/5/4 40/6/4
f 28/7/5 31/8/6 30/9/6 29/10/5
f 13/11/7 36/12/8 6/13/9 11/14/10
f 1/15/11 8/16/12 9/17/13
f 35/18/14 10/19/15 33/20/16
f 2/21/17 11/14/10 12/22/18
f 3/23/19 13/11/7 14/24/20
f 4/25/21 15/26/22 16/27/23
f 5/28/24 17/29/25 18/30/26
f 6/13/9 19/31/27 20/32/28
f 7/33/29 34/34/30 36/12/8
f 29/10/5 23/35/31 22/36/31 28/7/5
f 9/17/13 35/18/14 33/20/16 1/15/11
f 31/8/6 25/37/32 24/38/32 30/9/6
f 6/13/9 36/12/8 34/34/30 19/31/27
f 5/39/24 18/40/26 10/41/15 35/42/14
f 9/43/13 8/44/12 4/45/21 16/46/23
f 7/47/29 36/12/8 13/11/7 3/48/19
f 6/13/9 20/49/28 12/50/18 11/14/10
f 1/15/11 33/20/16 37/2/2 21/1/1
f 23/51/31 14/24/20 38/3/2
f 19/31/27 34/34/30 39/5/4 26/4/3
f 25/52/32 17/29/25 40/6/4
f 10/41/15 18/40/26 31/53/6 28/54/5
f 7/47/29 3/48/19 29/55/5 30/56/6
f 12/50/18 20/49/28 32/57/33 27/58/34
f 4/45/21 8/44/12 27/58/34 32/57/33
f 8/16/12 1/15/11 21/1/1 27/59/34
f 2/21/17 12/22/18 27/59/34 21/1/1
f 3/23/19 14/24/20 23/51/31 29/60/5
f 33/20/16 10/19/15 28/61/5 22/62/31
f 18/30/26 17/29/25 25/52/32 31/63/6
f 34/34/30 7/33/29 30/64/6 24/65/32
f 20/32/28 19/31/27 26/4/3 32/66/33
f 15/26/22 4/25/21 32/66/33 26/4/3
f 22/36/31 23/35/31 38/67/2 37/68/2
f 24/38/32 25/37/32 40/69/4 39/70/4
f 9/71/13 16/72/23 5/39/24 35/42/14
f 11/14/10 2/21/17 14/24/20 13/11/7
f 16/27/23 15/26/22 17/29/25 5/28/24
f 33/20/16 22/62/31 37/2/2
f 2/21/17 21/1/1 38/3/2 14/24/20
f 34/34/30 24/65/32 39/5/4
f 15/26/22 26/4/3 40/6/4 17/29/25
